<svg width="27" height="24" viewBox="0 0 27 24" fill="none" xmlns="http://www.w3.org/2000/svg">
<path d="M17.0053 9.33333C18.2933 9.33333 19.3387 10.3787 19.3387 11.6667V17.9987C19.3387 19.5903 18.7064 21.1168 17.5809 22.2423C16.4554 23.3677 14.929 24 13.3373 24C11.7457 24 10.2192 23.3677 9.09375 22.2423C7.96828 21.1168 7.336 19.5903 7.336 17.9987V11.6667C7.336 10.3787 8.38 9.33333 9.66933 9.33333H17.0053ZM17.0053 11.3333H9.66933C9.58093 11.3333 9.49614 11.3685 9.43363 11.431C9.37112 11.4935 9.336 11.5783 9.336 11.6667V17.9987C9.336 19.0599 9.75757 20.0776 10.508 20.828C11.2584 21.5784 12.2761 22 13.3373 22C14.3986 22 15.4163 21.5784 16.1667 20.828C16.9171 20.0776 17.3387 19.0599 17.3387 17.9987V11.6667C17.3387 11.5783 17.3035 11.4935 17.241 11.431C17.1785 11.3685 17.0937 11.3333 17.0053 11.3333ZM2.33333 9.33333H6.84133C6.37108 9.90154 6.08382 10.5988 6.01733 11.3333H2.33333C2.24493 11.3333 2.16014 11.3685 2.09763 11.431C2.03512 11.4935 2 11.5783 2 11.6667V15.9987C1.99966 16.5026 2.11358 17 2.33319 17.4536C2.55281 17.9072 2.8724 18.305 3.26793 18.6173C3.66347 18.9295 4.12465 19.148 4.6168 19.2563C5.10895 19.3647 5.61925 19.36 6.10933 19.2427C6.22267 19.9147 6.42933 20.556 6.71333 21.152C6.27244 21.272 5.81244 21.3324 5.33333 21.3333C4.63284 21.3333 3.9392 21.1953 3.29205 20.9272C2.64489 20.6591 2.05689 20.2662 1.56163 19.7708C1.06636 19.2754 0.67354 18.6873 0.405593 18.0401C0.137647 17.3928 -0.000174957 16.6992 1.66682e-07 15.9987V11.6667C1.66682e-07 10.3787 1.04533 9.33333 2.33333 9.33333ZM19.8333 9.33333H24.3333C25.6213 9.33333 26.6667 10.3787 26.6667 11.6667V16C26.6668 16.8176 26.4791 17.6242 26.1178 18.3576C25.7566 19.0911 25.2316 19.7316 24.5834 20.2298C23.9352 20.728 23.1811 21.0705 22.3795 21.2309C21.5778 21.3913 20.75 21.3652 19.96 21.1547C20.2453 20.5573 20.452 19.916 20.5667 19.244C20.8129 19.3027 21.0684 19.3324 21.3333 19.3333C22.2174 19.3333 23.0652 18.9821 23.6904 18.357C24.3155 17.7319 24.6667 16.8841 24.6667 16V11.6667C24.6667 11.5783 24.6315 11.4935 24.569 11.431C24.5065 11.3685 24.4217 11.3333 24.3333 11.3333H20.6573C20.5909 10.5988 20.3036 9.90154 19.8333 9.33333ZM13.3333 0C14.3942 0 15.4116 0.421427 16.1618 1.17157C16.9119 1.92172 17.3333 2.93913 17.3333 4C17.3333 5.06087 16.9119 6.07828 16.1618 6.82843C15.4116 7.57857 14.3942 8 13.3333 8C12.2725 8 11.2551 7.57857 10.5049 6.82843C9.75476 6.07828 9.33333 5.06087 9.33333 4C9.33333 2.93913 9.75476 1.92172 10.5049 1.17157C11.2551 0.421427 12.2725 0 13.3333 0ZM22 1.33333C22.8841 1.33333 23.7319 1.68452 24.357 2.30964C24.9821 2.93477 25.3333 3.78261 25.3333 4.66667C25.3333 5.55072 24.9821 6.39857 24.357 7.02369C23.7319 7.64881 22.8841 8 22 8C21.1159 8 20.2681 7.64881 19.643 7.02369C19.0179 6.39857 18.6667 5.55072 18.6667 4.66667C18.6667 3.78261 19.0179 2.93477 19.643 2.30964C20.2681 1.68452 21.1159 1.33333 22 1.33333ZM4.66667 1.33333C5.55072 1.33333 6.39857 1.68452 7.02369 2.30964C7.64881 2.93477 8 3.78261 8 4.66667C8 5.55072 7.64881 6.39857 7.02369 7.02369C6.39857 7.64881 5.55072 8 4.66667 8C3.78261 8 2.93477 7.64881 2.30964 7.02369C1.68452 6.39857 1.33333 5.55072 1.33333 4.66667C1.33333 3.78261 1.68452 2.93477 2.30964 2.30964C2.93477 1.68452 3.78261 1.33333 4.66667 1.33333ZM13.3333 2C12.8029 2 12.2942 2.21071 11.9191 2.58579C11.544 2.96086 11.3333 3.46957 11.3333 4C11.3333 4.53043 11.544 5.03914 11.9191 5.41421C12.2942 5.78929 12.8029 6 13.3333 6C13.8638 6 14.3725 5.78929 14.7475 5.41421C15.1226 5.03914 15.3333 4.53043 15.3333 4C15.3333 3.46957 15.1226 2.96086 14.7475 2.58579C14.3725 2.21071 13.8638 2 13.3333 2ZM22 3.33333C21.6464 3.33333 21.3072 3.47381 21.0572 3.72386C20.8071 3.97391 20.6667 4.31305 20.6667 4.66667C20.6667 5.02029 20.8071 5.35943 21.0572 5.60948C21.3072 5.85952 21.6464 6 22 6C22.3536 6 22.6928 5.85952 22.9428 5.60948C23.1929 5.35943 23.3333 5.02029 23.3333 4.66667C23.3333 4.31305 23.1929 3.97391 22.9428 3.72386C22.6928 3.47381 22.3536 3.33333 22 3.33333ZM4.66667 3.33333C4.31304 3.33333 3.97391 3.47381 3.72386 3.72386C3.47381 3.97391 3.33333 4.31305 3.33333 4.66667C3.33333 5.02029 3.47381 5.35943 3.72386 5.60948C3.97391 5.85952 4.31304 6 4.66667 6C5.02029 6 5.35943 5.85952 5.60948 5.60948C5.85952 5.35943 6 5.02029 6 4.66667C6 4.31305 5.85952 3.97391 5.60948 3.72386C5.35943 3.47381 5.02029 3.33333 4.66667 3.33333Z" fill="url(#paint0_linear_7_3487)"/>
<defs>
<linearGradient id="paint0_linear_7_3487" x1="13.3333" y1="0" x2="13.3333" y2="24" gradientUnits="userSpaceOnUse">
<stop stop-color="white"/>
<stop offset="1" stop-color="#0CF285"/>
</linearGradient>
</defs>
</svg>
