<svg width="24" height="24" viewBox="0 0 24 24" fill="none" xmlns="http://www.w3.org/2000/svg">
<path d="M11.9687 21.0155C16.9457 21.0155 20.9804 16.9809 20.9804 12.0039C20.9804 7.02685 16.9457 2.99219 11.9687 2.99219C6.99169 2.99219 2.95703 7.02685 2.95703 12.0039C2.95703 16.9809 6.99169 21.0155 11.9687 21.0155Z" fill="#FCEA2B"/>
<path d="M12.0013 19.3033C16.0276 19.3033 19.2916 16.0393 19.2916 12.013C19.2916 7.98665 16.0276 4.72266 12.0013 4.72266C7.97493 4.72266 4.71094 7.98665 4.71094 12.013C4.71094 16.0393 7.97493 19.3033 12.0013 19.3033Z" fill="white"/>
<path d="M18.371 8.46035C19.2305 10.0014 19.5018 11.8019 19.1344 13.5277C18.767 15.2536 17.7859 16.7875 16.3732 17.8448C14.9605 18.9021 13.2123 19.411 11.4528 19.2769C9.69341 19.1429 8.04238 18.3751 6.80618 17.116C5.56998 15.8569 4.83259 14.192 4.73088 12.4304C4.62916 10.6689 5.17003 8.93019 6.25309 7.53717C7.33615 6.14415 8.88784 5.19139 10.6201 4.85574C12.3524 4.52009 14.1477 4.82434 15.6727 5.71202" stroke="black" stroke-width="0.75" stroke-linecap="round" stroke-linejoin="round"/>
<path d="M20.9799 12.0008C20.9796 14.1448 20.2152 16.2187 18.8239 17.85C17.4325 19.4813 15.5053 20.5634 13.3881 20.9019C11.2709 21.2405 9.10239 20.8134 7.27169 19.6973C5.44099 18.5812 4.06799 16.8492 3.39913 14.8121C2.73026 12.775 2.80931 10.5663 3.62209 8.58219C4.43487 6.59813 5.92816 4.96869 7.83397 3.98633C9.73977 3.00396 11.9333 2.73299 14.0209 3.22203C16.1084 3.71108 17.9534 4.92813 19.2246 6.65476" stroke="black" stroke-width="0.75" stroke-linecap="round" stroke-linejoin="round"/>
<path d="M15.8006 7.191L19.4799 6.80433L19.0932 3.125M16.6609 12.1163H11.9662V6.17167M11.9662 17.9687V16.687M7.05025 12.1163H6.03125" stroke="black" stroke-width="0.75" stroke-linecap="round" stroke-linejoin="round"/>
<path d="M11.9644 13.3624C12.6524 13.3624 13.2101 12.8047 13.2101 12.1168C13.2101 11.4288 12.6524 10.8711 11.9644 10.8711C11.2765 10.8711 10.7188 11.4288 10.7188 12.1168C10.7188 12.8047 11.2765 13.3624 11.9644 13.3624Z" fill="black"/>
<path d="M16.2316 16.471C16.5041 16.471 16.7249 16.2502 16.7249 15.9777C16.7249 15.7052 16.5041 15.4844 16.2316 15.4844C15.9592 15.4844 15.7383 15.7052 15.7383 15.9777C15.7383 16.2502 15.9592 16.471 16.2316 16.471Z" fill="black"/>
<path d="M7.69646 8.73276C7.96892 8.73276 8.18979 8.51189 8.18979 8.23943C8.18979 7.96697 7.96892 7.74609 7.69646 7.74609C7.424 7.74609 7.20312 7.96697 7.20312 8.23943C7.20312 8.51189 7.424 8.73276 7.69646 8.73276Z" fill="black"/>
<path d="M7.69646 16.471C7.96892 16.471 8.18979 16.2502 8.18979 15.9777C8.18979 15.7052 7.96892 15.4844 7.69646 15.4844C7.424 15.4844 7.20312 15.7052 7.20312 15.9777C7.20312 16.2502 7.424 16.471 7.69646 16.471Z" fill="black"/>
</svg>
